<?xml version="1.0" encoding="utf-8"?>
<!-- Generator: Adobe Illustrator 22.1.0, SVG Export Plug-In . SVG Version: 6.00 Build 0)  -->
<svg version="1.1" id="Layer_1" xmlns="http://www.w3.org/2000/svg" xmlns:xlink="http://www.w3.org/1999/xlink" x="0px" y="0px"
	 viewBox="0 0 612 792" style="enable-background:new 0 0 612 792;" xml:space="preserve">
<style type="text/css">
	.st0{fill:#EFA26F;}
	.st1{fill:url(#SVGID_1_);}
	.st2{fill:#407EE2;}
	.st3{fill:#FFFFFF;}
	.st4{fill:#546472;}
	.st5{fill:#38557F;}
	.st6{fill:#04438E;}
</style>
<g>
	<g>
		<path class="st0" d="M85.1,133c21.1-12.2,41.4-18.7,58.9-19.2c4.8-0.2,9.7,0,15.6,1.4c2.2,0.5,5.6,2.1,7.4,3.4
			c3,2.3,4.7,4.6,4.7,4.6s-7.3-0.7-14.8-0.4c-8.6-2.2-14-2.4-20.6-2.3C121.1,120.6,107.4,125,85.1,133z"/>
	</g>
	<linearGradient id="SVGID_1_" gradientUnits="userSpaceOnUse" x1="76.4393" y1="50.1658" x2="310.2776" y2="246.3793">
		<stop  offset="0" style="stop-color:#4B678C"/>
		<stop  offset="0.2023" style="stop-color:#5C7899"/>
		<stop  offset="0.6031" style="stop-color:#89A3BC"/>
		<stop  offset="0.8403" style="stop-color:#A7C0D3"/>
	</linearGradient>
	<path class="st1" d="M257.1,200.7c-0.1-0.7-0.2-1.4-0.4-2.1l0.9,6.4C257.5,203.6,257.3,202.1,257.1,200.7z"/>
	<path class="st2" d="M265.4,279.8c13.5-19.5,20.8-42.6,19.6-67c-14.2,2.5-25.7,4.4-25.7,4.4l-1.5-10.9c0-0.5-0.1-0.9-0.1-1.4
		l-0.9-6.4c0-0.3-0.1-0.6-0.1-0.8L240.8,96.6c-1.8-12.1-8.1-23.1-16.3-30.9c-2.3-2.2-9.1-7.1-16.9-10.1c-1.6-0.6-3.1-1.1-4.8-1.6
		c-8.5-2.6-17.5-3.9-23.3-4.4c-1.5-0.1-3.1-0.2-4.6-0.3c-3.3-0.2-6.6-0.3-9.8-0.3c-11.5,0-21.6,0.8-24.5,1.2
		c-8.7,0.9-21.2,2.9-30.8,5.4c-11.5,3-21.6,6.8-30,10.8C62.7,74.6,47.1,86.9,46.5,98c-0.6,10.1,6.8,18.2,11.3,22.8
		c3.1,3.3,9.1,8.9,13.6,9.3c0.3,0.1,0.8,0.1,1.1,0.1c5.2,0,9-3.2,10.1-4c12.9-8.7,27.7-15.1,43.9-18.8c4.1-0.9,11.4-2.6,22.9-2.6
		c1.5,0,3.1,0,4.8,0.1c29.5,1.4,31.8,28.4,31.8,28.4c-7.3-1.5-14.9-2.3-22.6-2.3c-6.3,0-12.6,0.5-19,1.5
		c-54.7,8.9-92.8,53.8-85.2,100.4c6.7,41.1,46.8,69.6,93.6,69.6c6.3,0,12.6-0.5,19-1.5c16.6-2.7,31.8-8.8,44.5-17.2
		c3.3,1.7,7,2.5,10.7,2.5c1.4,0,2.7-0.1,4.1-0.3l33.9-5.8L265.4,279.8z M166.6,251.3c-3,0.5-5.9,0.8-8.8,0.8
		c-20.6,0-38-11.9-40.8-29c-3.2-19.6,13.8-38.6,38-42.6c3-0.5,5.9-0.8,8.8-0.8c11.9,0,22.8,4,30.3,10.6l5.8,40.2
		C193.6,240.7,181.4,248.8,166.6,251.3z"/>
	<path class="st3" d="M282.4,276.9c0.1-0.1,0.1-0.2,0.2-0.2c1.6-2.1,3.2-4.2,4.7-6.3c0.1-0.2,0.2-0.3,0.2-0.5
		c-1.6,2.3-3.3,4.6-5,6.8C282.5,276.7,282.5,276.8,282.4,276.9z"/>
	<path class="st3" d="M247.1,131.8"/>
	<path class="st3" d="M247.1,131.7L247.1,131.7"/>
	<path class="st3" d="M251.1,134.8L251.1,134.8"/>
	<path class="st4" d="M186.2,328.4l0.1,0.6c26.5-4.4,52.7-12.9,72.1-26.5l-11.8,1.9C230.5,314.2,209.2,324.4,186.2,328.4z"/>
	<path class="st2" d="M353.1,244.1c0,0-1.4-10.8-2.9-21.8c-1.4-11-11.9-18.8-22.8-17c-3.6,0.6-3.3,0.7-14.7,2.6
		c-3.4,22.6-12.2,43.9-25.4,62.5c-1.5,2.1-3.1,4.2-4.7,6.3c-0.1,0.1-0.1,0.1-0.2,0.2l-0.1,0.1c0,0.1-0.1,0.1-0.1,0.2l1.4-0.2l52.6-9
		C348.9,265.9,354.8,258.4,353.1,244.1z"/>
	<path class="st0" d="M185.7,194c-0.5-0.3-7.7-5.2-17.2-6.4c-10.3-1.4-23.6,1-36.8,12c-6.5,5.3-4.4,3.5,1.9,0.5
		c6.5-3.1,17.5-7.4,28.3-6.2c9.9,1.1,14,3.1,17.8,4.8c4.3,2,7.5,4.3,7.5,4.3L185.7,194z"/>
	<path class="st0" d="M284.4,208.4c0,0-0.2-2.5-0.5-4c-1-7.2-3.2-18.5-8.6-29.2c-8.7-17.6-17.1-22.7-17.1-22.7l2.5,16.6
		c0,0,7.9,9.8,12.9,23.9c2.1,5.8,3.8,16.2,3.8,16.2L284.4,208.4z"/>
	<path class="st0" d="M330.9,277.5c-7.6,1.3-23.6,4.1-49.6,8.5c-21.3,3.6-42.7,7.2-54,8.9c-1.8,0.3-3.3,0.5-4.5,0.7
		c-3.1,0.4-5.4,0.2-7-0.6c0,0.1,0,0.2,0,0.3c-0.7,0.5-3,2.1-8.5,4.4c-3.2,1.3-7.3,2.9-13.3,4.5c-4.1,1.2-9,2.4-15.1,3.7
		c-18.8,4-39,2.2-49.3,1c-8.2-1-10.1-1.7,0,1.1c22.8,6.5,44.4,5.1,60.9,1.7c13-2.6,23.5-6.6,31.1-10.1c1.2,0.2,2.5,0.2,4.2-0.1
		c17.7-2.5,86.6-14.6,100.5-16.9c15.9-2.6,16.6-6.5,19.4-11.7C342.9,274.8,338.5,276.2,330.9,277.5z"/>
	<path class="st5" d="M287.8,269.4c-0.1,0.2-0.2,0.3-0.2,0.5c13-18.5,21.8-39.7,25.1-62c0.4-2.7,0.7-5.5,1-8.3
		c-0.3,2.8-0.6,5.5-1,8.3C309.3,230.1,300.6,251.1,287.8,269.4z"/>
	<path class="st5" d="M282.4,276.7c-0.1,0.3-0.3,0.4-0.4,0.6l-2.1,0.4l0,0l2.1-0.4c0.1-0.1,0.1-0.1,0.2-0.2l0.1-0.1
		C282.5,276.8,282.5,276.7,282.4,276.7c1.8-2.2,3.5-4.5,5.1-6.8c0.1-0.2,0.2-0.3,0.2-0.5C286.1,271.9,284.3,274.3,282.4,276.7z"/>
	<path class="st5" d="M282.3,277l0.1-0.1L282.3,277z"/>
	<path class="st5" d="M291.4,205.9c-0.1-0.5-0.1-1.1-0.2-1.6c0-0.4-0.1-0.7-0.1-1.1c0-0.3-0.1-0.5-0.1-0.8c0,0.3,0.1,0.5,0.1,0.8
		H291c0.2,1.3,0.3,2.7,0.4,4h0.1l0,0C291.5,206.8,291.4,206.3,291.4,205.9z"/>
	<path class="st6" d="M312.6,165.9c-2.9-18.3-8.7-36.4-20-53.1c-8.8-13.2-21.2-26.5-39.5-37.6c-5-3-10.4-5.7-16.3-8.3
		c6.5,8.4,10.8,18.4,12.3,28.6l6.7,43.4v0.1c12.6,11.2,22.5,24.6,28.7,40c3.1,7.6,5.2,15.8,6.4,24.3h0.1c0-0.3-0.1-0.5-0.1-0.8
		c0,0.3,0.1,0.5,0.1,0.8c0,0.4,0.1,0.7,0.1,1.1c0.1,0.5,0.1,1.1,0.2,1.6c0,0.4,0.1,0.8,0.1,1.3l0,0c0.1,0.7,0.1,1.5,0.2,2.2
		s0.1,1.4,0.1,2.1c1.3,24.4-5.9,47.5-19.4,67.1c-0.1,0.1-0.1,0.2-0.2,0.3l0,0l7.8-1.3l0,0l2.1-0.4c0.2-0.2,0.3-0.3,0.4-0.6
		c1.9-2.4,3.6-4.8,5.4-7.2c12.8-18.3,21.5-39.4,24.8-61.6c0.4-2.7,0.8-5.5,1-8.3C314.7,188.6,314.4,177.3,312.6,165.9z"/>
</g>
</svg>
