<?xml version="1.0" encoding="utf-8"?>
<!-- Generator: Adobe Illustrator 22.1.0, SVG Export Plug-In . SVG Version: 6.00 Build 0)  -->
<svg version="1.1" id="Layer_1" xmlns="http://www.w3.org/2000/svg" xmlns:xlink="http://www.w3.org/1999/xlink" x="0px" y="0px"
	 viewBox="0 0 612 792" style="enable-background:new 0 0 612 792;" xml:space="preserve">
<style type="text/css">
	.st0{fill:#083B6D;}
	.st1{fill:#166651;}
	.st2{fill:url(#SVGID_1_);}
	.st3{fill:#FFFFFF;}
</style>
<path class="st0" d="M470.8,331.7c-5.9-4.3-13.7-5.9-21.3-4.5l-106.9,20L310.2,147c-2.2-13.7-16.2-22.7-31.2-19.9l-16.1,3
	c-15,2.8-25.3,16.2-23.1,29.9l40.8,251.3l0.3,0.8c0.6,1.8,1.4,3.7,2.5,5.6l0.5,0.7c1.1,1.7,2.3,3,3.7,4.1c1.8,1.6,3.6,2.7,4.9,3.5
	l0.7,0.4c5.4,2.7,11.5,3.5,17.7,2.4l150.1-27.9c15-2.8,25.3-16.2,23.1-29.9l-3.8-23.6C479.6,341.1,476.2,335.5,470.8,331.7z"/>
<path class="st1" d="M306.8,131l-16.5,1.8c-10.2,1.1-19.1,5.2-23.1,13.6c-20-6.5-43.8-5.9-66.1-3.4c-32,3.6-64.5,16.5-79.3,27.1
	c-15.9,11.5-40.3,28-39.4,46.6c0.5,10.4,7,17,13.2,23c10.3,10,17.2,14.6,29.3,13.7c12.8-0.9,16.4-9.8,40.2-24.4
	c13-8,32.1-13.1,42-14.2c28.5-3.2,62.6-2.4,64.9,23.1C272.1,238,321.8,129.3,306.8,131z"/>
<g>
	
		<linearGradient id="SVGID_1_" gradientUnits="userSpaceOnUse" x1="126.1973" y1="267.2988" x2="383.528" y2="340.5156" gradientTransform="matrix(0.9825 -0.1864 0.1864 0.9825 -65.5763 37.3033)">
		<stop  offset="0" style="stop-color:#083B6D"/>
		<stop  offset="0.9103" style="stop-color:#166651"/>
	</linearGradient>
	<path class="st2" d="M211.7,458.6c-55.5,0-99.3-34-108.8-84.5c-5.3-28,2.9-57.5,22.9-83c19.1-24.4,47-41.9,76.5-48
		c2.6-0.5,5.1-1,7.6-1.4c0.6-0.1,1.2-0.2,1.9-0.3c0.3,0,0.7-0.1,1-0.1l0.8-0.1c1.3-0.2,2.6-0.4,4-0.5c0.8-0.1,1.5-0.2,2.3-0.2
		l1.9-0.2c1.1-0.1,2.3-0.2,3.4-0.3c0.8-0.1,1.6-0.1,2.4-0.1l1.6-0.1c1.2-0.1,2.4-0.1,3.6-0.1c0.4,0,0.7,0,1.1,0l2,0
		c1.5,0,3,0,4.5,0.1c0.6,0,1.3,0.1,1.9,0.1l0.8,0c1.5,0.1,3.2,0.2,4.9,0.3c0.5,0,1,0.1,1.5,0.1l0.6,0.1c2,0.2,3.8,0.4,5.5,0.6
		c0.2,0,0.4,0.1,0.6,0.1l-15.6-79.9c-3.3-17.4,7.9-34.4,24.9-38l15.8-3.3c2.1-0.4,4.2-0.7,6.3-0.7c15,0,27.9,10.9,30.7,25.9
		l47.1,246.5c3.3,17.3-7.9,34.2-25,37.8l-15.8,3.3c-2.4,0.5-4.8,0.7-7.1,0.7c-5.5,0-10.8-1.3-15.3-3.9c-6.7,4.8-14.1,9.2-22,13
		l-0.6,0.3c-4.8,2.3-9.8,4.4-14.9,6.2c-1.2,0.4-2.4,0.9-3.6,1.3c-1.1,0.4-2.2,0.7-3.3,1.1c-1.5,0.5-3.1,0.9-4.7,1.4l-0.7,0.2
		c-0.7,0.2-1.3,0.4-2,0.6c-2.8,0.7-5.3,1.3-7.7,1.8C232.2,457.5,221.8,458.6,211.7,458.6z"/>
	<path class="st3" d="M287.5,124.4c12.3,0,23.2,8.9,25.6,21.7l47.1,246.5c2.7,14.5-6.7,28.8-21,31.8l-15.8,3.3
		c-2.1,0.4-4.1,0.6-6.1,0.6c-5.9,0-11.3-1.8-15.5-5c-7.4,5.6-15.5,10.4-24,14.6c-0.2,0.1-0.4,0.2-0.6,0.3c-4.7,2.2-9.5,4.3-14.4,6
		c-1.2,0.4-2.3,0.8-3.5,1.2c-1.1,0.4-2.1,0.7-3.2,1c-1.5,0.5-3,0.9-4.6,1.3c-0.9,0.2-1.7,0.5-2.6,0.7c-2.5,0.6-4.9,1.2-7.4,1.8
		c-10.3,2.2-20.3,3.2-29.8,3.2c-54.1,0-94.8-32.9-103.7-80.3c-10.5-55.7,37.1-112.9,95.4-125c2.5-0.5,4.9-1,7.4-1.4
		c0.9-0.1,1.9-0.3,2.8-0.4c1.5-0.2,3-0.4,4.6-0.6c1.1-0.1,2.2-0.2,3.2-0.3c1.4-0.1,2.7-0.3,4.1-0.4c1.1-0.1,2.2-0.1,3.2-0.1
		c1.4-0.1,2.7-0.1,4.1-0.2c0.3,0,0.7,0,1,0c0.7,0,1.3,0,2,0c1.5,0,2.9,0,4.4,0.1c0.9,0,1.7,0.1,2.6,0.1c1.6,0.1,3.2,0.2,4.8,0.3
		c0.7,0.1,1.4,0.1,2.1,0.2c1.8,0.2,3.5,0.4,5.3,0.6c0.5,0.1,1,0.1,1.5,0.2c1.9,0.3,3.9,0.6,5.8,1c0.1,0,0.3,0,0.4,0.1l-17-87.2
		c-2.8-14.6,6.6-29,20.9-32l15.8-3.3C284,124.5,285.8,124.4,287.5,124.4 M287.5,114.1c-2.5,0-5,0.3-7.4,0.8l-15.8,3.3
		c-19.7,4.1-32.7,23.8-28.9,43.9l0,0l0,0l14.2,73c-0.5,0-0.9-0.1-1.4-0.1c-1.9-0.2-3.6-0.2-5.1-0.3l-0.7,0c-0.7,0-1.3-0.1-2-0.1
		c-1.6,0-3.2-0.1-4.7-0.1l-0.8,0c-0.4,0-0.8,0-1.2,0c-0.4,0-0.8,0-1.2,0c-1.3,0-2.6,0.1-3.8,0.1l-0.6,0c-0.3,0-0.6,0-0.9,0
		c-0.8,0-1.6,0.1-2.5,0.1c-1.2,0.1-2.4,0.2-3.5,0.3l-0.8,0.1c-0.3,0-0.7,0.1-1,0.1c-0.8,0.1-1.6,0.1-2.4,0.2
		c-1.4,0.2-2.8,0.4-4.1,0.6l-0.7,0.1c-0.3,0-0.6,0.1-1,0.1c-0.7,0.1-1.3,0.2-2,0.3c-2.6,0.4-5.2,0.9-7.8,1.4
		c-30.7,6.4-59.6,24.5-79.5,49.9c-10,12.7-17.2,26.5-21.4,41c-4.5,15.5-5.4,31-2.5,46.1c10,53,55.8,88.7,113.9,88.7
		c10.4,0,21.1-1.1,31.9-3.4c2.4-0.5,5-1.1,7.9-1.9c0.7-0.2,1.4-0.4,2.1-0.6l0.7-0.2c1.7-0.5,3.3-0.9,4.9-1.4
		c1.1-0.3,2.2-0.7,3.4-1.1c1.3-0.4,2.5-0.9,3.7-1.3l0.1,0c5.2-1.9,10.4-4,15.4-6.4l0.2-0.1l0.4-0.2c7.1-3.5,13.9-7.4,20.1-11.6
		c4.6,2,9.6,3.1,14.9,3.1c2.7,0,5.5-0.3,8.2-0.9l15.8-3.3c19.7-4.1,32.7-23.7,29-43.7l-47.1-246.6C320,126.7,305,114.1,287.5,114.1
		L287.5,114.1z"/>
</g>
<ellipse transform="matrix(0.9767 -0.2148 0.2148 0.9767 -69.5417 57.5746)" class="st3" cx="230.2" cy="348.8" rx="47.4" ry="35.7"/>
</svg>
