<?xml version="1.0" encoding="utf-8"?>
<!-- Generator: Adobe Illustrator 22.1.0, SVG Export Plug-In . SVG Version: 6.00 Build 0)  -->
<svg version="1.1" id="Layer_1" xmlns="http://www.w3.org/2000/svg" xmlns:xlink="http://www.w3.org/1999/xlink" x="0px" y="0px"
	 viewBox="0 0 612 792" style="enable-background:new 0 0 612 792;" xml:space="preserve">
<style type="text/css">
	.st0{fill:none;}
	.st1{fill:url(#SVGID_1_);}
	.st2{fill:#FFFFFF;}
	.st3{fill:#A7C0D3;}
	.st4{fill:#EFA26F;}
	.st5{fill:url(#SVGID_2_);}
	.st6{fill:#407EE2;}
	.st7{fill:#546472;}
	.st8{fill:#38557F;}
</style>
<path class="st0" d="M321.8,172l11.1,77.2c0,0,13.9-2.4,29.5-5.1c0-0.6-0.1-1.3-0.1-1.9C360.2,212.8,344.9,188.7,321.8,172z"/>
<g>
	<g>
		
			<linearGradient id="SVGID_1_" gradientUnits="userSpaceOnUse" x1="139.764" y1="666.096" x2="358.1786" y2="482.8244" gradientTransform="matrix(1 0 0 -1 0 792)">
			<stop  offset="0" style="stop-color:#4B678C"/>
			<stop  offset="0.2023" style="stop-color:#5C7899"/>
			<stop  offset="0.6031" style="stop-color:#89A3BC"/>
			<stop  offset="0.8403" style="stop-color:#A7C0D3"/>
		</linearGradient>
		<path class="st1" d="M236.2,334c-47.2,0-86.3-29.2-92.9-69.4c-3.3-20,1.9-40.7,14.5-58.3c15.6-21.7,40.8-36.7,69.3-41.4
			c6-1,12.2-1.5,18.5-1.5c3.8,0,9.6,0.4,14.5,0.9c-0.9-3-3.3-6.4-10.3-9.1c-4.3-1.6-9.2-2.5-14.4-2.5c-9.9,0-19.8,2.9-27.2,5.5
			c-12,4.1-26.3,13.6-31,16.7l-0.5,0.3c-0.2,0.1-0.4,0.3-0.6,0.5c-1.8,1.3-6.6,4.6-13.2,4.6c-0.5,0-1.2,0-1.9-0.1
			c-5-0.5-10.5-4-17.2-10.8l-0.1-0.1c-3.9-4-13-13.5-12.3-26.3c0.9-17.3,24.6-30.3,34.7-35.1c4.6-2.2,16.3-7,27.8-10.4
			c4.5-1.3,28-8.1,53.3-8.1c23.6,0,30.1,2.1,41.4,6.5c8.4,3.2,15.4,8.4,17.9,10.7c9.2,8.6,15.5,20.4,17.2,32.5l14.2,91.2
			c0.2,1.1,0.4,2,0.5,2.8c0.3,1.7,0.5,3.5,0.7,5.5l0.2,1.6l30.3-5.2l0.5,8.8c1.1,20.5-4,40.8-14.8,58.8l1.4,8.3l-48.2,8.2
			c-1.9,0.3-3.5,0.4-5.1,0.4c-3.1,0-6.1-0.5-9-1.4c-12.1,7.2-25.9,12.3-40,14.5C249,333.5,242.7,334,236.2,334z M246.2,223.1
			c-2.1,0-4.3,0.2-6.8,0.6c-8.8,1.5-16.7,5.5-22,11.5c-4.9,5.5-7.1,11.9-6,18.1c1.8,11.4,14.2,19.7,29.3,19.7c2.1,0,4.3-0.2,6.8-0.6
			c9.6-1.6,18.2-6.4,23.4-13l-4.4-30.1C261,225.3,253.9,223.1,246.2,223.1z"/>
		<path class="st2" d="M247.3,93.3c23.4,0,29.2,2.1,40,6.2c7.4,2.8,14,7.5,16.7,9.9c8.6,8,14.4,18.9,16,30.1l14.3,91.4
			c0.2,1,0.4,1.8,0.5,2.6c0.3,1.7,0.5,3.5,0.7,5.4l0.8,5.8l29.9-5.1l0.2,4.3c1.1,20.3-4.1,40.1-15,57.8l1,5.8l-44.3,7.5
			c-1.5,0.2-2.9,0.4-4.4,0.4c-3.3,0-6.5-0.6-9.4-1.8c-12,7.4-25.8,12.7-40.1,15c-5.9,1.1-11.9,1.5-17.8,1.5c-45.2,0-82.6-27.8-89-66
			c-7.3-44,28.9-86.7,80.6-95.1c5.9-1,12-1.5,17.9-1.5c5.2,0,14.2,0.8,19.3,1.5c-0.7-2,1.1-11.8-13.7-17.4c-5.1-2-10.5-2.7-15.8-2.7
			c-10,0-19.9,2.7-28.5,5.7c-13.2,4.5-29,15.2-32.6,17.6c-0.1,0.1-0.2,0.2-0.3,0.2c-1.5,1.1-5.6,4-11,4c-0.5,0-0.9,0-1.4-0.1
			c-4-0.4-8.9-3.5-14.8-9.6c-3.5-3.7-12-12.3-11.3-23.5c0.8-15.6,25-28.2,32.4-31.8c4-1.9,15.5-6.7,27.2-10.2
			C202,99.1,223.9,93.3,247.3,93.3 M240.6,276.9c2.5,0,4.9-0.2,7.4-0.6c11.3-1.8,21.3-7.7,26.9-16l-4.9-33.4
			c-6.3-5.1-14.8-7.8-23.9-7.8c-2.5,0-4.9,0.2-7.4,0.6c-9.8,1.6-18.4,6.1-24.4,12.7c-5.7,6.4-8.3,14-7,21.4
			C209.5,267.2,223.6,276.9,240.6,276.9 M247.3,85.3c-25.2,0-48,6.3-54.4,8.2c-11.7,3.5-23.6,8.4-28.3,10.7
			c-4.3,2-12.6,6.4-20.2,12.3c-10.6,8.4-16.3,17.2-16.8,26.3c-0.8,14.6,9.6,25.3,13.5,29.3l0.1,0.1l0,0l0,0
			c7.3,7.5,13.5,11.3,19.5,11.9c1,0.1,1.8,0.1,2.4,0.1c7.7,0,13.2-3.7,15.4-5.3c0.3-0.2,0.6-0.4,0.8-0.6l0.3-0.2
			c12.3-8.2,22.4-13.7,30-16.3c7.2-2.4,16.6-5.2,26-5.2c4.8,0,9,0.7,12.9,2.2c0.5,0.2,1,0.4,1.4,0.6c-1.5-0.1-3-0.1-4.2-0.1
			c-6.6,0-13,0.5-19.2,1.6c-29.5,4.8-55.7,20.5-71.9,43c-13.3,18.5-18.7,40.3-15.2,61.3c7,42.2,47.7,72.7,96.9,72.7
			c6.7,0,13.2-0.6,19.2-1.6c13.9-2.2,27.6-7.1,39.8-14.1c2.7,0.7,5.5,1,8.4,1c1.7,0,3.6-0.2,5.6-0.5l0,0l0,0l44.3-7.5l7.9-1.3
			l-1.4-7.9l-0.5-2.9c10.7-18.4,15.7-39,14.6-59.8L374,239l-0.5-9l-8.9,1.5l-21.7,3.7c-0.1-1-0.3-2-0.4-3c-0.1-0.9-0.3-1.9-0.5-3
			l-14.2-91c-1.9-13-8.6-25.7-18.4-34.8l0,0l0,0c-3.8-3.4-11.4-8.4-19.2-11.4C278.3,87.4,271.6,85.3,247.3,85.3L247.3,85.3z
			 M240,227.6c2.2-0.3,4.2-0.5,6.1-0.5c6.2,0,12,1.5,16.5,4.3l3.9,26.6c-4.6,5.2-11.8,9-19.8,10.3c-2.2,0.3-4.2,0.5-6.2,0.5
			c-13,0-23.9-7-25.4-16.3c-0.8-5,1-10.2,5.1-14.8C225.1,232.6,232.1,229,240,227.6L240,227.6z"/>
	</g>
</g>
<g>
	<path class="st3" d="M403.5,277.1c0,0-1.4-11-2.9-22.3c-1.4-11.2-11.9-19.2-22.7-17.3c-3.6,0.6-5.6,0.8-16.9,2.8
		c-3.7,25.7-17,50.3-32.8,70.6c-0.2,0.2-0.3,0.3-0.4,0.6l58.9-10C399.4,299.4,405.2,291.8,403.5,277.1z"/>
</g>
<g>
	<path class="st4" d="M-25.5,175.9c11.4-7.7,20.9-9.2,30.2-8c9.3,1.2,16.4,5.8,16.4,5.8l4.4,30.3c0,0-2.4,3.2-6.8,6.4
		c-0.8-0.7-3.9-31.1-4.9-31.7c-3.3-2.2-7.5-4.2-12.6-5.1C-6.7,172.4-15.5,172.7-25.5,175.9z"/>
</g>
<g>
	<path class="st4" d="M159.4,515.9c21.1-12.2,41.4-18.7,58.9-19.2c4.8-0.2,9.7,0,15.6,1.4c2.2,0.5,5.6,2.1,7.4,3.4
		c3,2.3,4.7,4.6,4.7,4.6s-7.3-0.7-14.8-0.4c-8.6-2.2-14-2.4-20.6-2.3C195.4,503.4,181.8,507.8,159.4,515.9z"/>
</g>
<g>
	<path class="st4" d="M1.1,292.3c-13.5,2.2-83.1,13.9-100.3,16.4c-2.9,0.4-4.9,0.2-6.4-0.5c0,0.1,0,0.2,0,0.2
		c-0.6,0.5-2.7,1.9-7.7,4c-4.9,2-12.3,4.6-25.8,7.4c-30.6,6.5-65.5-3.8-44.8,1.9c20.7,5.8,40.4,6.3,55.3,3.2
		c11.8-2.4,21.4-6,28.2-9.1c1.1,0.2,2.3,0.2,3.8-0.1c16.1-2.3,80.8-13.3,93.4-15.3c14.4-2.4,15-7.6,17.7-12.2
		C11.9,289.9,7.9,291.2,1.1,292.3z"/>
</g>
<path class="st4" d="M304.6,442.4c1.6,1.5,3.1,3.1,4.5,4.8l-1.2-8.4c-1.7-11.6-13.4-19.5-26.2-17.3l-17.2,2.6
	c-1.3,0.2-2.5,0.4-3.6,0.6c6.4,0.9,15.5,2.6,24.1,5.8C294.4,434.2,301.9,439.8,304.6,442.4z"/>
<linearGradient id="SVGID_2_" gradientUnits="userSpaceOnUse" x1="150.7646" y1="359.0216" x2="384.6028" y2="162.8081" gradientTransform="matrix(1 0 0 -1 0 792)">
	<stop  offset="0" style="stop-color:#4B678C"/>
	<stop  offset="0.2023" style="stop-color:#5C7899"/>
	<stop  offset="0.6031" style="stop-color:#89A3BC"/>
	<stop  offset="0.8403" style="stop-color:#A7C0D3"/>
</linearGradient>
<path class="st5" d="M331.4,583.5c-0.1-0.7-0.2-1.4-0.4-2.1l0.9,6.4C331.8,586.4,331.6,585,331.4,583.5z"/>
<path class="st6" d="M339.7,662.6c13.5-19.5,20.8-42.6,19.6-67c-14.2,2.5-25.7,4.4-25.7,4.4l-1.5-10.9c0-0.5-0.1-0.9-0.1-1.4
	l-0.9-6.4c0-0.3-0.1-0.6-0.1-0.8l-15.8-101.2c-1.8-12.1-8.1-23.1-16.3-30.9c-2.3-2.2-9.1-7.1-16.9-10.1c-1.6-0.6-3.1-1.1-4.8-1.6
	c-8.5-2.6-17.5-3.9-23.3-4.4c-1.5-0.1-3.1-0.2-4.6-0.3c-3.3-0.2-6.6-0.3-9.8-0.3c-11.5,0-21.6,0.8-24.5,1.2
	c-8.7,0.9-21.2,2.9-30.8,5.4c-11.5,3-21.6,6.8-30,10.8c-17.1,8.2-32.7,20.5-33.3,31.6c-0.6,10.1,6.8,18.2,11.3,22.8
	c3.1,3.3,9.1,8.9,13.6,9.3c0.3,0.1,0.8,0.1,1.1,0.1c5.2,0,9-3.2,10.1-4c12.9-8.7,27.7-15.1,43.9-18.8c4.1-0.9,11.4-2.6,22.9-2.6
	c1.5,0,3.1,0,4.8,0.1c29.5,1.4,31.8,28.4,31.8,28.4c-7.3-1.5-14.9-2.3-22.6-2.3c-6.3,0-12.6,0.5-19,1.5
	c-54.7,8.9-92.8,53.8-85.2,100.4c6.7,41.1,46.8,69.6,93.6,69.6c6.3,0,12.6-0.5,19-1.5c16.6-2.7,31.8-8.8,44.5-17.2
	c3.3,1.7,7,2.5,10.7,2.5c1.4,0,2.7-0.1,4.1-0.3l33.9-5.8L339.7,662.6z M346.5,661.8 M241,634.1c-3,0.5-5.9,0.8-8.8,0.8
	c-20.6,0-38-11.9-40.8-29c-3.2-19.6,13.8-38.6,38-42.6c3-0.5,5.9-0.8,8.8-0.8c11.9,0,22.8,4,30.3,10.6l5.8,40.2
	C267.9,623.6,255.7,631.6,241,634.1z"/>
<path class="st2" d="M356.7,659.7c0.1-0.1,0.1-0.2,0.2-0.2c1.6-2.1,3.2-4.2,4.7-6.3c0.1-0.2,0.2-0.3,0.2-0.5c-1.6,2.3-3.3,4.6-5,6.8
	C356.8,659.6,356.8,659.6,356.7,659.7z"/>
<path class="st2" d="M321.5,514.6"/>
<path class="st2" d="M321.5,514.6L321.5,514.6"/>
<path class="st2" d="M325.4,517.6L325.4,517.6"/>
<path class="st7" d="M260.5,711.2l0.1,0.6c26.5-4.4,52.7-12.9,72.1-26.5l-11.8,1.9C304.8,697,283.5,707.2,260.5,711.2z"/>
<path class="st6" d="M427.4,626.9c0,0-1.4-10.8-2.9-21.8c-1.4-11-11.9-18.8-22.8-17c-3.6,0.6-3.3,0.7-14.7,2.6
	c-3.4,22.6-12.2,43.9-25.4,62.5c-1.5,2.1-3.1,4.2-4.7,6.3c-0.1,0.1-0.1,0.1-0.2,0.2c0,0-0.1,0.1-0.1,0.1c0,0.1-0.1,0.1-0.1,0.2
	l1.4-0.2l52.6-9C423.3,648.7,429.1,641.2,427.4,626.9z"/>
<path class="st4" d="M260,576.8c-0.5-0.3-7.7-5.2-17.2-6.4c-10.3-1.4-23.6,1-36.8,12c-6.5,5.3-4.4,3.5,1.9,0.5
	c6.5-3.1,17.5-7.4,28.3-6.2c9.9,1.1,14,3.1,17.8,4.8c4.3,2,7.5,4.3,7.5,4.3L260,576.8z"/>
<path class="st4" d="M358.7,591.2c0,0-0.2-2.5-0.5-4c-1-7.2-3.2-18.5-8.6-29.2c-8.7-17.6-17.1-22.7-17.1-22.7l2.5,16.6
	c0,0,7.9,9.8,12.9,23.9c2.1,5.8,3.8,16.2,3.8,16.2L358.7,591.2z"/>
<path class="st4" d="M405.3,660.3c-7.6,1.3-23.6,4.1-49.6,8.5c-21.3,3.6-42.7,7.2-54,8.9c-1.8,0.3-3.3,0.5-4.5,0.7
	c-3.1,0.4-5.4,0.2-7-0.6c0,0.1,0,0.2,0,0.3c-0.7,0.5-3,2.1-8.5,4.4c-3.2,1.3-7.3,2.9-13.3,4.5c-4.1,1.2-9,2.4-15.1,3.7
	c-18.8,4-39,2.2-49.3,1c-8.2-1-10.1-1.7,0,1.1c22.8,6.5,44.4,5.1,60.9,1.7c13-2.6,23.5-6.6,31.1-10.1c1.2,0.2,2.5,0.2,4.2-0.1
	c17.7-2.5,86.6-14.6,100.5-16.9c15.9-2.6,16.6-6.5,19.4-11.7C417.2,657.6,412.8,659,405.3,660.3z"/>
<path class="st8" d="M362.1,652.3c-0.1,0.2-0.2,0.3-0.2,0.5c13-18.5,21.8-39.7,25.1-62c0.4-2.7,0.7-5.5,1-8.3
	c-0.3,2.8-0.6,5.5-1,8.3C383.6,612.9,375,633.9,362.1,652.3z"/>
<path class="st8" d="M356.8,659.5c-0.1,0.3-0.3,0.4-0.4,0.6l-2.1,0.4l0,0l2.1-0.4c0.1-0.1,0.1-0.1,0.2-0.2c0,0,0.1-0.1,0.1-0.1
	C356.8,659.6,356.8,659.6,356.8,659.5c1.8-2.2,3.5-4.5,5.1-6.8c0.1-0.2,0.2-0.3,0.2-0.5C360.4,654.7,358.6,657.1,356.8,659.5z"/>
<path class="st8" d="M356.6,659.8c0,0,0.1-0.1,0.1-0.1C356.7,659.7,356.7,659.8,356.6,659.8z"/>
<path class="st8" d="M365.7,588.7c-0.1-0.5-0.1-1.1-0.2-1.6c0-0.4-0.1-0.7-0.1-1.1c0-0.3-0.1-0.5-0.1-0.8c0,0.3,0.1,0.5,0.1,0.8
	l-0.1,0c0.2,1.3,0.3,2.7,0.4,4l0.1,0l0,0C365.8,589.6,365.8,589.2,365.7,588.7z"/>
<path class="st8" d="M386.9,548.7c-2.9-18.3-8.7-36.4-20-53.1c-8.8-13.2-21.2-26.5-39.5-37.6c-5-3-10.4-5.7-16.3-8.3
	c6.5,8.4,10.8,18.4,12.3,28.6l6.7,43.4l0,0.1c12.6,11.2,22.5,24.6,28.7,40c3.1,7.6,5.2,15.8,6.4,24.3l0.1,0c0-0.3-0.1-0.5-0.1-0.8
	c0,0.3,0.1,0.5,0.1,0.8c0,0.4,0.1,0.7,0.1,1.1c0.1,0.5,0.1,1.1,0.2,1.6c0,0.4,0.1,0.8,0.1,1.3l0,0c0.1,0.7,0.1,1.5,0.2,2.2
	c0.1,0.7,0.1,1.4,0.1,2.1c1.3,24.4-5.9,47.5-19.4,67.1c-0.1,0.1-0.1,0.2-0.2,0.3c0,0,0,0,0,0l7.8-1.3l0,0l2.1-0.4
	c0.2-0.2,0.3-0.3,0.4-0.6c1.9-2.4,3.6-4.8,5.4-7.2c12.8-18.3,21.5-39.4,24.8-61.6c0.4-2.7,0.8-5.5,1-8.3
	C389,571.4,388.7,560.1,386.9,548.7z"/>
<g>
	<path class="st4" d="M3.4,225.6l2.6,17c0,0,3.9,5.1,8.1,16.8c3.2,8.8,3.4,13.2,3.4,13.2l8-1.4c0,0-1-11.4-8.3-25.9
		S3.4,225.6,3.4,225.6z"/>
</g>
<path class="st0" d="M330.4,174.1l10.6,77c0,0,13.2-2.4,28.1-5c0-0.6-0.1-1.3-0.1-1.9C367,214.9,352.4,190.8,330.4,174.1z"/>
<g>
	<path class="st8" d="M387,204.9c-2.5-16.5-7.6-32.8-17.3-47.9c-3.3-5.2-14.6-16.2-26-24.4c-14.9-10.7-29.8-17.9-27.3-15
		c4.8,5.4,7.8,12.9,8.7,20c1.9,14,5,48.5,5,48.5c22,16.8,36.6,28.8,38.7,58.1c0.1,0.6,0.1,1.3,0.1,1.9c1.1,22.1-5.2,43.1-17,60.7
		l8.6-1.5c0.1-0.2,0.3-0.3,0.4-0.5c13.7-18,22.9-39.3,26.1-62C388.9,230.5,389,217.7,387,204.9z"/>
</g>
<path class="st2" d="M356.8,216.6c3.5,8.7,5.7,18.2,6.3,28.2c0.1,0.6,0.1,1.3,0.1,1.9c1.1,22.1-5.2,43.1-17,60.7l8.6-1.5
	c0.1-0.2,0.3-0.3,0.4-0.5c13.7-18,22.9-39.3,26.1-62c1.2-8.8,1.6-17.8,1-26.9L356.8,216.6L356.8,216.6z"/>
<g>
	<path class="st8" d="M362.6,215.9c3.5,8.7,5.7,18.2,6.3,28.2c0.1,0.6,0.1,1.3,0.1,1.9c1.1,22.1-5.2,43.1-17,60.7l8.6-1.5
		c0.1-0.2,0.3-0.3,0.4-0.5c13.7-18,22.9-39.3,26.1-62c1.2-8.8,1.6-17.8,1-26.9L362.6,215.9L362.6,215.9z"/>
</g>
</svg>
